<?xml version="1.0" standalone="no"?>
<!DOCTYPE svg PUBLIC "-//W3C//DTD SVG 20010904//EN"
 "http://www.w3.org/TR/2001/REC-SVG-20010904/DTD/svg10.dtd">
<svg version="1.0" xmlns="http://www.w3.org/2000/svg" width="32.000000pt" height="32.000000pt" viewBox="0 0 32.000000 32.000000" preserveAspectRatio="xMidYMid meet"><g transform="translate(0.000000,32.000000) scale(0.100000,-0.100000)"fill="#000000" stroke="none"><path d="M250 310 c13 -8 11 -14 -12 -36 -23 -24 -29 -26 -43 -14 -14 12 -24 6 -75 -45 -33 -32 -57 -61 -54 -64 2 -3 29 19 59 49 44 44 57 51 69 41 11 -10 21 -6 49 19 24 21 37 27 40 18 3 -7 6 -1 6 15 1 23 -3 27 -26 27 -22 0 -25 -2 -13 -10z"/><path d="M237 224 c-4 -4 -7 -54 -7 -111 0 -95 -1 -103 -20 -103 -16 0 -19 8 -22 63 -3 59 -4 62 -28 62 -24 0 -25 -3 -28 -63 -3 -53 -6 -63 -20 -60 -11 2 -18 15 -20 33 -4 38 -15 49 -41 40 -16 -5 -21 -15 -21 -40 0 -18 -6 -36 -12 -38 -7 -3 57 -6 142 -6 85 0 150 3 143 7 -8 5 -13 44 -15 112 -3 97 -5 105 -23 108 -12 2 -24 0 -28 -4z m41 -112 c3 -97 2 -102 -18 -102 -19 0 -20 6 -20 106 0 95 2 105 18 102 15 -3 17 -17 20 -106z m-100 -45 c3 -52 1 -57 -18 -57 -18 0 -20 6 -20 53 0 30 3 57 7 61 17 16 28 -5 31 -57z m-98 -27 c0 -23 -4 -30 -20 -30 -16 0 -20 7 -20 30 0 23 4 30 20 30 16 0 20 -7 20 -30z"/></g></svg>
