<?xml version="1.0" standalone="no"?>
<!DOCTYPE svg PUBLIC "-//W3C//DTD SVG 20010904//EN"
 "http://www.w3.org/TR/2001/REC-SVG-20010904/DTD/svg10.dtd">
<svg version="1.0" xmlns="http://www.w3.org/2000/svg"
 width="32.000000pt" height="32.000000pt" viewBox="0 0 32.000000 32.000000"
 preserveAspectRatio="xMidYMid meet">

<g transform="translate(0.000000,32.000000) scale(0.100000,-0.100000)"
fill="#000000" stroke="none">
<path d="M109 285 c-33 -18 -40 -34 -50 -110 -4 -33 -11 -72 -14 -87 -7 -26
-5 -28 27 -28 21 0 40 -7 51 -20 22 -26 52 -26 74 0 11 13 30 20 51 20 32 0
34 2 27 27 -3 16 -10 55 -14 88 -10 77 -17 93 -52 110 -35 19 -66 18 -100 0z
m106 -30 c21 -20 25 -34 25 -84 0 -33 5 -63 10 -66 28 -17 1 -25 -90 -25 -91
0 -118 8 -90 25 5 3 10 33 10 66 0 50 4 64 25 84 15 16 36 25 55 25 19 0 40
-9 55 -25z m-30 -205 c-8 -13 -42 -13 -50 0 -4 6 7 10 25 10 18 0 29 -4 25
-10z"/>
</g>
</svg>
