<?xml version="1.0" standalone="no"?>
<!DOCTYPE svg PUBLIC "-//W3C//DTD SVG 20010904//EN"
 "http://www.w3.org/TR/2001/REC-SVG-20010904/DTD/svg10.dtd">
<svg version="1.0" xmlns="http://www.w3.org/2000/svg" width="32.000000pt" height="32.000000pt" viewBox="0 0 32.000000 32.000000" preserveAspectRatio="xMidYMid meet"> <g transform="translate(0.000000,32.000000) scale(0.100000,-0.100000)" fill="#000000" stroke="none"><path d="M124 310 c-54 -22 -74 -120 -34 -160 24 -24 26 -50 4 -50 -23 0 -74 -55 -74 -79 0 -20 5 -21 140 -21 135 0 140 1 140 21 0 24 -51 79 -74 79 -17 0 -19 11 -10 48 4 12 13 22 20 22 24 0 18 84 -8 114 -25 29 -72 40 -104 26z m63 -10 c17 -6 35 -22 42 -36 17 -39 13 -42 -9 -6 -17 28 -25 32 -60 32 -35 0 -43 -4 -60 -32 -22 -36 -26 -33 -9 6 7 14 24 30 38 35 14 5 26 10 27 10 1 1 15 -4 31 -9z m18 -42 c14 -20 14 -23 0 -26 -8 -2 -24 3 -35 11 -12 8 -31 12 -43 9 -20 -5 -20 -4 -8 11 20 25 67 22 86 -5z m-22 -33 c34 -14 35 -16 27 -51 -12 -50 -43 -68 -80 -44 -11 7 -7 9 15 7 21 -1 30 3 30 13 0 11 -9 14 -31 13 -28 -3 -32 1 -36 27 -7 50 15 60 75 35z m-96 -37 c-3 -7 -5 -2 -5 12 0 14 2 19 5 13 2 -7 2 -19 0 -25z m150 0 c-3 -7 -5 -2 -5 12 0 14 2 19 5 13 2 -7 2 -19 0 -25z m-93 -109 c-8 -13 -24 -1 -24 18 0 13 3 13 15 3 8 -7 12 -16 9 -21z m52 6 c-3 -9 -11 -13 -16 -10 -8 5 -7 11 1 21 14 18 24 11 15 -11z m-73 -30 c9 -20 17 -38 17 -40 0 -3 -25 -5 -55 -5 -41 0 -55 4 -55 14 0 14 54 66 69 66 4 0 15 -16 24 -35z m136 9 c47 -40 41 -54 -24 -54 -30 0 -55 2 -55 5 0 12 35 75 41 75 4 0 21 -12 38 -26z m-83 -5 c10 -17 -13 -36 -27 -22 -12 12 -4 33 11 33 5 0 12 -5 16 -11z"/><path d="M250 51 c0 -5 5 -13 10 -16 6 -3 10 -2 10 4 0 5 -4 13 -10 16 -5 3 -10 2 -10 -4z"/></g></svg>
